<?xml version="1.0" standalone="no"?>
<!DOCTYPE svg PUBLIC "-//W3C//DTD SVG 20010904//EN"
 "http://www.w3.org/TR/2001/REC-SVG-20010904/DTD/svg10.dtd">
<svg version="1.0" xmlns="http://www.w3.org/2000/svg"
 width="5200.000000pt" height="2387.000000pt" viewBox="0 0 5200.000000 2387.000000"
 preserveAspectRatio="xMidYMid meet">

<g transform="translate(0.000000,2387.000000) scale(0.100000,-0.100000)"
fill="#000000" stroke="none">
<path d="M18775 5476 c-148 -47 -290 -193 -391 -403 -20 -41 -34 -77 -30 -80
5 -5 178 -25 180 -21 19 43 89 168 119 213 89 132 233 245 335 261 24 4 40 9
38 12 -8 7 -146 31 -181 31 -16 0 -48 -6 -70 -13z"/>
<path d="M19098 5419 c-112 -26 -253 -137 -346 -272 -50 -72 -106 -176 -100
-183 2 -1 465 -43 1028 -93 l1025 -90 53 59 c52 58 152 120 194 120 51 0 -3
23 -219 93 -453 146 -866 251 -1357 346 -164 32 -214 35 -278 20z"/>
<path d="M21026 4914 c-27 -9 -65 -26 -85 -38 -36 -23 -106 -95 -99 -102 2 -2
57 -8 122 -14 113 -11 119 -10 140 9 26 24 144 81 171 82 11 0 -25 18 -79 40
-113 44 -104 43 -170 23z"/>
<path d="M18200 4244 c0 -57 27 -283 54 -445 12 -76 20 -141 18 -144 -3 -3
-145 -5 -316 -5 -336 0 -728 -12 -1201 -35 -1464 -74 -3063 -251 -5045 -561
-516 -80 -1082 -173 -1087 -178 -2 -2 163 -95 366 -208 l370 -205 193 18 c541
53 1332 124 1933 174 1203 100 2396 176 3540 225 319 13 1364 35 1370 28 14
-14 104 -707 92 -708 -1 0 -837 -32 -1857 -70 l-1855 -69 -6625 -368 c-3644
-202 -6600 -369 -6570 -371 30 -1 1632 56 3560 128 7101 264 6799 253 11885
440 748 28 1387 50 1419 50 l59 0 -7 -142 c-21 -422 -101 -703 -260 -915 -30
-39 -49 -70 -42 -68 168 51 244 82 267 106 37 40 106 175 140 277 69 203 94
439 86 791 -9 391 -49 717 -171 1412 -78 443 -104 611 -115 752 -4 59 -10 109
-12 111 -2 2 -46 7 -96 11 l-93 8 0 -39z"/>
<path d="M18495 4233 c2 -15 7 -66 10 -113 8 -111 32 -273 110 -740 35 -212
78 -482 95 -600 17 -118 32 -229 35 -246 43 -298 55 -846 22 -1052 -32 -204
-87 -380 -151 -480 -14 -23 -26 -43 -26 -46 0 -2 66 21 148 51 301 110 676
225 912 278 l75 17 140 -52 c164 -61 407 -176 538 -254 52 -31 96 -56 99 -56
4 0 30 37 59 82 205 319 261 808 178 1553 -23 203 -50 397 -108 760 -54 341
-71 490 -71 628 0 93 -3 117 -14 117 -21 0 -1955 168 -2008 175 -48 6 -48 6
-43 -22z"/>
<path d="M20674 3934 c9 -167 20 -263 91 -764 89 -630 108 -842 108 -1160 0
-118 -6 -262 -12 -320 -35 -307 -124 -566 -252 -736 l-46 -61 57 -46 57 -46
49 56 c215 249 328 588 351 1050 l6 131 131 6 c72 4 678 27 1346 51 668 24
1269 47 1335 50 l120 7 30 -94 c41 -129 142 -330 215 -426 157 -209 369 -340
603 -371 47 -7 262 -10 540 -10 321 1 435 4 375 10 -255 25 -546 119 -764 247
-121 71 -122 72 -24 66 179 -9 1870 -11 1995 -2 377 27 685 134 859 297 l38
36 -27 -55 c-39 -78 -154 -189 -235 -228 -106 -50 -236 -72 -464 -79 l-199 -6
-70 -40 c-209 -121 -497 -212 -745 -236 -56 -5 154 -9 594 -10 570 -1 696 1
770 14 286 49 510 196 666 434 65 100 104 182 153 326 l41 119 80 -2 c43 -2
1350 -50 2904 -107 1554 -58 3381 -125 4060 -150 679 -25 4390 -163 8245 -306
3856 -143 7035 -258 7065 -257 30 2 -2967 171 -6660 376 -6473 359 -6758 374
-7920 417 -4218 156 -5257 195 -5355 200 -60 3 -594 24 -1185 45 l-1075 39
-99 -19 c-191 -37 -275 -71 -352 -142 -24 -22 -44 -35 -44 -29 0 8 -486 11
-1857 11 -1022 0 -1863 4 -1868 8 -6 4 -16 19 -24 34 -22 42 -98 97 -160 115
-48 14 -97 15 -366 9 -373 -8 -1056 -29 -1795 -57 -300 -11 -620 -23 -711 -26
l-166 -6 -6 24 c-4 13 -7 56 -7 94 -1 39 -9 145 -18 238 l-18 167 41 0 c47 0
633 -53 840 -76 610 -67 1211 -157 1744 -260 211 -41 243 -44 325 -39 112 8
174 -5 241 -50 36 -25 66 -36 109 -41 l59 -7 -21 30 c-81 114 -351 312 -603
442 -607 314 -1459 537 -2603 681 -126 15 -232 32 -236 37 -12 13 -40 293 -40
406 l0 105 -72 6 c-40 4 -91 9 -112 13 l-39 5 7 -138z"/>
<path d="M33125 3639 c-2361 -82 -4037 -445 -4843 -1051 -81 -61 -257 -226
-249 -234 4 -4 146 24 282 55 403 92 1056 202 1635 275 883 112 1843 184 2895
217 338 11 1836 7 2100 -5 50 -3 171 -7 270 -11 275 -9 831 -34 1115 -50 140
-8 379 -21 530 -30 344 -19 1149 -76 1630 -115 201 -16 428 -34 505 -40 375
-29 1938 -171 2042 -185 41 -6 59 3 418 202 l376 208 -228 37 c-2808 459
-4640 663 -6533 728 -333 11 -1611 11 -1945 -1z"/>
<path d="M1388 1313 c23 -2 61 -2 85 0 23 2 4 4 -43 4 -47 0 -66 -2 -42 -4z"/>
<path d="M50828 1313 c23 -2 61 -2 85 0 23 2 4 4 -43 4 -47 0 -66 -2 -42 -4z"/>
<path d="M1188 1303 c12 -2 30 -2 40 0 9 3 -1 5 -23 4 -22 0 -30 -2 -17 -4z"/>
<path d="M51068 1303 c12 -2 32 -2 45 0 12 2 2 4 -23 4 -25 0 -35 -2 -22 -4z"/>
</g>
</svg>
